<svg xmlns="http://www.w3.org/2000/svg" xmlns:xlink="http://www.w3.org/1999/xlink" width="480" height="270" viewBox="0 0 480 270">
  <defs>
    <polygon id="pc_img_episode_noimage_small-a" points="0 0 33.839 0 33.839 44.364 0 44.364"/>
    <polygon id="pc_img_episode_noimage_small-c" points="0 0 32.003 0 32.003 44.452 0 44.452"/>
    <polygon id="pc_img_episode_noimage_small-e" points="0 0 43.314 0 43.314 56.786 0 56.786"/>
    <polygon id="pc_img_episode_noimage_small-g" points="0 0 40.964 0 40.964 56.899 0 56.899"/>
  </defs>
  <g fill="none" fill-rule="evenodd">
    <g transform="translate(99.61 59.594)">
      <polygon fill="#FFF" points="0 0 0 17.961 22.615 17.961 22.615 89.909 40.743 89.909 40.743 17.961 63.359 17.961 63.359 0"/>
      <polygon fill="#FFF" points="115.146 0 93.708 47.355 72.269 0 53.132 0 93.765 89.909 134.508 0"/>
      <g transform="translate(109.067 48.845)">
        <g transform="translate(0 .54)">
          <mask id="pc_img_episode_noimage_small-b" fill="#fff">
            <use xlink:href="#pc_img_episode_noimage_small-a"/>
          </mask>
          <path fill="#FFF" d="M15.6202295,21.0064892 C13.4730176,21.0064892 11.1176074,19.1503983 11.1176074,16.5048026 C11.1176074,12.8894216 13.112915,8.38507069 17.6128564,8.38507069 C20.6509424,8.38507069 22.5300879,11.1985138 22.5300879,15.1424851 C22.5300879,18.9647892 20.2702881,21.0064892 15.6202295,21.0064892 M23.8588037,33.8481521 C14.7999463,39.8444804 9.26169434,33.3419454 10.0792969,27.5205692 C20.0031152,32.1279376 32.9444678,25.8252211 32.9444678,15.0261464 C32.9444678,6.3646846 26.6145264,-1.4868466 15.1207324,0.240472503 C4.8314502,1.78839908 0,13.8423334 0,26.6271589 C0,35.964451 5.73930176,43.9252163 15.9168896,44.3452789 C25.5261768,44.7386992 34.7047705,39.1144771 33.7736865,34.0621798 C33.2625732,31.2940288 29.5132178,30.101335 23.8588037,33.8481521" mask="url(#pc_img_episode_noimage_small-b)"/>
        </g>
        <g transform="translate(37.642)">
          <mask id="pc_img_episode_noimage_small-d" fill="#fff">
            <use xlink:href="#pc_img_episode_noimage_small-c"/>
          </mask>
          <path fill="#FFF" d="M17.9965183,4.22666171 C14.3043503,4.44601791 10.9204587,6.1884344 9.77938935,8.61645004 C10.0072458,5.6369356 10.3575192,-0.236837422 5.91208466,0.00738507305 C2.08498994,0.215196214 -0.137280571,1.9238656 0.00658173395,5.77458828 C0.311283882,13.8650135 0.874223336,21.5051812 1.06544404,33.2953552 C1.10833466,35.9658172 0.641899117,38.5723372 0.581137398,39.5350179 C0.371152046,42.7294482 2.60861298,44.4523268 6.39460419,44.4523268 C9.73292451,44.4523268 12.0901218,42.6486327 11.5191403,39.4941662 C10.5013815,33.8530706 9.96524873,28.6675609 10.8176999,22.3382019 C11.6576413,16.0869941 13.8432761,13.4351819 16.5847019,12.9023328 C19.9945065,12.242488 23.2023679,13.7611079 24.8161276,16.150936 C26.0537009,17.9839369 28.6673483,19.0443065 30.7940085,16.791243 C32.8527585,14.6065618 31.8716354,12.3268558 30.8628122,10.8046836 C28.2715036,6.89712368 23.9055954,3.87586939 17.9965183,4.22666171" mask="url(#pc_img_episode_noimage_small-d)"/>
        </g>
      </g>
    </g>
    <rect width="480" height="270" fill="#E6E9F1"/>
    <g transform="translate(125.625 75)">
      <polygon fill="#FFF" points="0 0 0 22.99 28.947 22.99 28.947 115.084 52.15 115.084 52.15 22.99 81.1 22.99 81.1 0"/>
      <polygon fill="#FFF" points="147.387 0 119.946 60.615 92.504 0 68.01 0 120.019 115.084 172.171 0"/>
      <g transform="translate(139.605 62.522)">
        <g transform="translate(0 .692)">
          <mask id="pc_img_episode_noimage_small-f" fill="#fff">
            <use xlink:href="#pc_img_episode_noimage_small-e"/>
          </mask>
          <path fill="#FFF" d="M19.9938937,26.8883062 C17.2454625,26.8883062 14.2305375,24.5125098 14.2305375,21.1261473 C14.2305375,16.4984596 16.7845312,10.7328905 22.5444562,10.7328905 C26.4332062,10.7328905 28.8385125,14.3340977 28.8385125,19.3823809 C28.8385125,24.2749301 25.9459687,26.8883062 19.9938937,26.8883062 M30.5392687,43.3256346 C18.9439312,51.0009349 11.8549687,42.6776902 12.9015,35.2263286 C25.6039875,41.1237602 42.1689187,33.056283 42.1689187,19.2334674 C42.1689187,8.14679628 34.0665937,-1.90316365 19.3545375,0.307804803 C6.18425625,2.28915082 0,17.7181867 0,34.0827635 C0,46.0344973 7.34630625,56.2242768 20.3736187,56.761957 C32.6735062,57.265535 44.4221062,50.0665307 43.2303187,43.5995901 C42.5760937,40.0563569 37.7769187,38.5297087 30.5392687,43.3256346" mask="url(#pc_img_episode_noimage_small-f)"/>
        </g>
        <g transform="translate(48.181)">
          <mask id="pc_img_episode_noimage_small-h" fill="#fff">
            <use xlink:href="#pc_img_episode_noimage_small-g"/>
          </mask>
          <path fill="#FFF" d="M23.0355434,5.41012698 C18.3095684,5.69090293 13.9781871,7.92119603 12.5176184,11.0290561 C12.8092746,7.21527757 13.2576246,-0.3031519 7.56746837,0.00945289351 C2.66878712,0.275451154 -0.175719131,2.46254797 0.00842461945,7.391473 C0.398443369,17.7472173 1.11900587,27.5266319 1.36376837,42.6180546 C1.41866837,46.036246 0.821630869,49.3725917 0.743855869,50.6048229 C0.475074619,54.6936936 3.33902462,56.8989784 8.18509337,56.8989784 C12.4581434,56.8989784 15.4753559,54.5902499 14.7444996,50.5525327 C13.4417684,43.3319303 12.7555184,36.694478 13.8466559,28.5928985 C14.9217809,20.5913525 17.7193934,17.1970328 21.2284184,16.514986 C25.5929684,15.6703847 29.6990309,17.6142181 31.7646434,20.6731981 C33.3487371,23.0194392 36.6942059,24.3767124 39.4163309,21.4927911 C42.0515309,18.6963991 40.7956934,15.7783754 39.5043996,13.829995 C36.1875246,8.82831831 30.5991621,4.96111282 23.0355434,5.41012698" mask="url(#pc_img_episode_noimage_small-h)"/>
        </g>
      </g>
    </g>
  </g>
</svg>
