<?xml version="1.0" encoding="UTF-8"?>
<svg width="90px" height="90px" viewBox="0 0 90 90" version="1.1" xmlns="http://www.w3.org/2000/svg" xmlns:xlink="http://www.w3.org/1999/xlink">
    <title>PC_img_ranking_3</title>
    <defs>
        <path d="M43.7748428,68 C48.248218,68 51.8643606,66.7289308 54.6232704,64.1867925 C57.3821803,61.6446541 58.7616352,58.284696 58.7616352,54.1069182 C58.7616352,48.963522 56.4855346,45.4853249 51.9333333,43.672327 C54.5148847,42.5687631 56.3919287,41.1400419 57.5644654,39.3861635 C58.7370021,37.6322851 59.3232704,35.3955975 59.3232704,32.6761006 C59.3232704,29.0895178 58.2492662,26.251782 56.1012579,24.1628931 C53.933543,22.0542977 51.0465409,21 47.4402516,21 C39.045283,21 34.5522013,25.5127883 33.9610063,34.5383648 L33.9610063,34.5383648 L39.9320755,34.5383648 C40.3262055,29.5920335 42.5825996,27.1188679 46.7012579,27.1188679 C48.6127883,27.1188679 50.1006289,27.65587 51.1647799,28.7298742 C52.2289308,29.8038784 52.7610063,31.267086 52.7610063,33.1194969 C52.7610063,35.6025157 52.1254717,37.4992662 50.8544025,38.8097484 C49.5833333,40.1202306 47.7851153,40.7656184 45.4597484,40.7459119 L45.4597484,40.7459119 L43.8044025,40.7459119 L43.0654088,46.7465409 C49.154717,46.7465409 52.1993711,49.1014675 52.1993711,53.8113208 C52.1993711,56.2155136 51.4209644,58.166457 49.8641509,59.6641509 C48.3073375,61.1618449 46.2874214,61.9106918 43.8044025,61.9106918 C41.6563941,61.9106918 39.9419287,61.4032495 38.6610063,60.3883648 C37.3800839,59.3734801 36.5819706,57.9102725 36.2666667,55.9987421 L36.2666667,55.9987421 L30,55.9987421 C30.197065,57.929979 30.6552411,59.6395178 31.3745283,61.1273585 C32.0938155,62.6151992 33.0397275,63.8665618 34.2122642,64.8814465 C35.3848008,65.8963312 36.774109,66.6698113 38.3801887,67.2018868 C39.9862683,67.7339623 41.7844864,68 43.7748428,68 Z" id="path-1"></path>
        <filter x="-56.4%" y="-30.9%" width="212.7%" height="170.2%" filterUnits="objectBoundingBox" id="filter-2">
            <feMorphology radius="0.5" operator="dilate" in="SourceAlpha" result="shadowSpreadOuter1"></feMorphology>
            <feOffset dx="0" dy="2" in="shadowSpreadOuter1" result="shadowOffsetOuter1"></feOffset>
            <feGaussianBlur stdDeviation="5" in="shadowOffsetOuter1" result="shadowBlurOuter1"></feGaussianBlur>
            <feComposite in="shadowBlurOuter1" in2="SourceAlpha" operator="out" result="shadowBlurOuter1"></feComposite>
            <feColorMatrix values="0 0 0 0 1   0 0 0 0 1   0 0 0 0 1  0 0 0 1 0" type="matrix" in="shadowBlurOuter1"></feColorMatrix>
        </filter>
    </defs>
    <g id="PC_img_ranking_3" stroke="none" stroke-width="1" fill="none" fill-rule="evenodd">
        <g id="3-copy" fill-rule="nonzero">
            <use fill="black" fill-opacity="1" filter="url(#filter-2)" xlink:href="#path-1"></use>
            <use stroke="#FAFBFC" stroke-width="1" fill="#21ABE6" xlink:href="#path-1"></use>
        </g>
    </g>
</svg>