<?xml version="1.0" encoding="UTF-8"?>
<svg width="90px" height="90px" viewBox="0 0 90 90" version="1.1" xmlns="http://www.w3.org/2000/svg" xmlns:xlink="http://www.w3.org/1999/xlink">
    <title>PC_img_ranking_9</title>
    <defs>
        <path d="M10.8306885,45.3500366 L24.1885376,27.3822021 C27.8728231,22.4204508 29.7149658,17.9585775 29.7149658,13.996582 C29.7149658,10.0345866 28.391215,6.70206706 25.7437134,3.99902344 C23.0962118,1.33300781 19.8007202,0 15.8572388,0 C11.4323934,0 7.67405192,1.54591878 4.58221436,4.63775635 C1.52740479,7.72959391 0,11.5249634 0,16.0238647 C0,19.9303182 1.14786784,23.0591838 3.44360352,25.4104614 C5.73933919,27.7432251 8.83117676,28.9096069 12.7191162,28.9096069 C13.7003581,28.9096069 14.7186279,28.770752 15.7739258,28.493042 L15.7739258,28.493042 L6.05407715,41.6287231 L10.8306885,45.3500366 Z M14.079895,23.6331177 C11.7286174,23.6331177 9.81241862,22.9203288 8.33129883,21.494751 C6.88720703,20.0876872 6.16516113,18.2085164 6.16516113,15.8572388 C6.16516113,13.0245972 7.07234701,10.6177775 8.88671875,8.63677979 C10.6825765,6.69281006 12.9320272,5.7208252 15.6350708,5.7208252 C17.9493205,5.7208252 19.8470052,6.48915609 21.328125,8.02581787 C22.8092448,9.56247965 23.5498047,11.5342204 23.5498047,13.94104 C23.5498047,16.6440837 22.6333618,18.9398193 20.8004761,20.8282471 C18.9675903,22.6981608 16.7273966,23.6331177 14.079895,23.6331177 Z" id="path-1"></path>
        <filter x="-85.8%" y="-51.8%" width="271.6%" height="212.9%" filterUnits="objectBoundingBox" id="filter-2">
            <feMorphology radius="0.5" operator="dilate" in="SourceAlpha" result="shadowSpreadOuter1"></feMorphology>
            <feOffset dx="0" dy="2" in="shadowSpreadOuter1" result="shadowOffsetOuter1"></feOffset>
            <feGaussianBlur stdDeviation="8" in="shadowOffsetOuter1" result="shadowBlurOuter1"></feGaussianBlur>
            <feComposite in="shadowBlurOuter1" in2="SourceAlpha" operator="out" result="shadowBlurOuter1"></feComposite>
            <feColorMatrix values="0 0 0 0 1   0 0 0 0 1   0 0 0 0 1  0 0 0 1 0" type="matrix" in="shadowBlurOuter1" result="shadowMatrixOuter1"></feColorMatrix>
            <feMorphology radius="0.5" operator="dilate" in="SourceAlpha" result="shadowSpreadOuter2"></feMorphology>
            <feOffset dx="0" dy="2" in="shadowSpreadOuter2" result="shadowOffsetOuter2"></feOffset>
            <feGaussianBlur stdDeviation="5" in="shadowOffsetOuter2" result="shadowBlurOuter2"></feGaussianBlur>
            <feComposite in="shadowBlurOuter2" in2="SourceAlpha" operator="out" result="shadowBlurOuter2"></feComposite>
            <feColorMatrix values="0 0 0 0 1   0 0 0 0 1   0 0 0 0 1  0 0 0 1 0" type="matrix" in="shadowBlurOuter2" result="shadowMatrixOuter2"></feColorMatrix>
            <feMerge>
                <feMergeNode in="shadowMatrixOuter1"></feMergeNode>
                <feMergeNode in="shadowMatrixOuter2"></feMergeNode>
            </feMerge>
        </filter>
    </defs>
    <g id="PC_img_ranking_9" stroke="none" stroke-width="1" fill="none" fill-rule="evenodd">
        <g id="img/ranking/8" transform="translate(29.6875, 22.0312)" fill-rule="nonzero">
            <g id="9">
                <use fill="black" fill-opacity="1" filter="url(#filter-2)" xlink:href="#path-1"></use>
                <use stroke="#FFFFFF" stroke-width="1" fill="#21ABE6" xlink:href="#path-1"></use>
            </g>
        </g>
    </g>
</svg>