<?xml version="1.0" encoding="UTF-8"?>
<svg width="90px" height="90px" viewBox="0 0 90 90" version="1.1" xmlns="http://www.w3.org/2000/svg" xmlns:xlink="http://www.w3.org/1999/xlink">
    <title>PC_img_ranking_8</title>
    <defs>
        <path d="M13.7188721,44.1281128 C17.6623535,44.1281128 20.9300741,42.915446 23.5220337,40.4901123 C26.0954793,38.0832926 27.3822021,35.0007121 27.3822021,31.2423706 C27.3822021,26.5398153 25.4012044,23.0221558 21.439209,20.6893921 C22.5685628,20.1339722 23.5359192,19.5322673 24.3412781,18.8842773 C25.146637,18.2362874 25.8038839,17.5327555 26.3130188,16.7736816 C26.8221537,16.0146077 27.1924337,15.1768494 27.4238586,14.2604065 C27.6552836,13.3439636 27.7709961,12.3303223 27.7709961,11.2194824 C27.7709961,7.8499349 26.6879272,5.13763428 24.5217896,3.08258057 C22.3556519,1.02752686 19.4859823,0 15.9127808,0 C12.2099813,0 9.17368571,1.04604085 6.80389404,3.13812256 C4.47113037,5.23020426 3.30474854,7.95176188 3.30474854,11.3027954 C3.30474854,14.9315389 4.9432373,17.8567505 8.22021484,20.0784302 C2.74007161,22.3371379 0,26.1695353 0,31.5756226 C0,35.296936 1.26820882,38.3239746 3.80462646,40.6567383 C6.3965861,42.970988 9.70133464,44.1281128 13.7188721,44.1281128 Z M15.3295898,17.3846436 C13.6263021,17.3846436 12.2192383,16.8569946 11.1083984,15.8016968 C9.99755859,14.7463989 9.44213867,13.3948771 9.44213867,11.7471313 C9.44213867,10.0253296 10.0345866,8.59975179 11.2194824,7.47039795 C12.4228923,6.32253011 13.913269,5.74859619 15.6906128,5.74859619 C17.4494425,5.74859619 18.8750203,6.27624512 19.9673462,7.33154297 C21.059672,8.38684082 21.605835,9.76613363 21.605835,11.4694214 C21.605835,13.2097371 21.013387,14.6353149 19.8284912,15.7461548 C18.6250814,16.8384806 17.1254476,17.3846436 15.3295898,17.3846436 Z M13.6077881,38.4072876 C11.4601644,38.4072876 9.67356364,37.7500407 8.24798584,36.4355469 C6.85943604,35.1395671 6.16516113,33.4455363 6.16516113,31.3534546 C6.16516113,29.1317749 6.87795003,27.3266602 8.30352783,25.9381104 C9.71059163,24.5310465 11.5712484,23.8275146 13.885498,23.8275146 C16.0331217,23.8275146 17.7919515,24.4662476 19.1619873,25.7437134 C20.5320231,27.0211792 21.217041,28.678182 21.217041,30.7147217 C21.217041,32.9364014 20.5042521,34.7878011 19.0786743,36.2689209 C17.6530965,37.6944987 15.8294678,38.4072876 13.6077881,38.4072876 Z" id="path-1"></path>
        <filter x="-91.8%" y="-53.3%" width="283.6%" height="215.6%" filterUnits="objectBoundingBox" id="filter-2">
            <feMorphology radius="0.5" operator="dilate" in="SourceAlpha" result="shadowSpreadOuter1"></feMorphology>
            <feOffset dx="0" dy="2" in="shadowSpreadOuter1" result="shadowOffsetOuter1"></feOffset>
            <feGaussianBlur stdDeviation="8" in="shadowOffsetOuter1" result="shadowBlurOuter1"></feGaussianBlur>
            <feComposite in="shadowBlurOuter1" in2="SourceAlpha" operator="out" result="shadowBlurOuter1"></feComposite>
            <feColorMatrix values="0 0 0 0 1   0 0 0 0 1   0 0 0 0 1  0 0 0 1 0" type="matrix" in="shadowBlurOuter1" result="shadowMatrixOuter1"></feColorMatrix>
            <feMorphology radius="0.5" operator="dilate" in="SourceAlpha" result="shadowSpreadOuter2"></feMorphology>
            <feOffset dx="0" dy="2" in="shadowSpreadOuter2" result="shadowOffsetOuter2"></feOffset>
            <feGaussianBlur stdDeviation="5" in="shadowOffsetOuter2" result="shadowBlurOuter2"></feGaussianBlur>
            <feComposite in="shadowBlurOuter2" in2="SourceAlpha" operator="out" result="shadowBlurOuter2"></feComposite>
            <feColorMatrix values="0 0 0 0 1   0 0 0 0 1   0 0 0 0 1  0 0 0 1 0" type="matrix" in="shadowBlurOuter2" result="shadowMatrixOuter2"></feColorMatrix>
            <feMerge>
                <feMergeNode in="shadowMatrixOuter1"></feMergeNode>
                <feMergeNode in="shadowMatrixOuter2"></feMergeNode>
            </feMerge>
        </filter>
    </defs>
    <g id="PC_img_ranking_8" stroke="none" stroke-width="1" fill="none" fill-rule="evenodd">
        <g id="img/ranking/8" transform="translate(30.7812, 23.125)" fill-rule="nonzero">
            <g id="8">
                <use fill="black" fill-opacity="1" filter="url(#filter-2)" xlink:href="#path-1"></use>
                <use stroke="#FFFFFF" stroke-width="1" fill="#21ABE6" xlink:href="#path-1"></use>
            </g>
        </g>
    </g>
</svg>