<?xml version="1.0" encoding="UTF-8"?>
<svg width="90px" height="90px" viewBox="0 0 90 90" version="1.1" xmlns="http://www.w3.org/2000/svg" xmlns:xlink="http://www.w3.org/1999/xlink">
    <title>PC_img_ranking_5</title>
    <defs>
        <path d="M59.554607,27.3869894 L45.430765,27.3869894 L42.3991929,36.6898207 C43.9839136,36.342901 44.8107412,36.2730488 46.0507889,36.2730488 C54.3872249,36.2730488 59.4856724,41.896737 59.4856724,51.1995682 C59.4856724,61.2657008 53.009308,68 43.2949551,68 C36.4743052,68 31.7894651,65.292544 28,59.2524743 L32.7537746,55.3649452 C36.2675014,60.2245516 38.8854661,61.8213965 43.2260205,61.8213965 C49.082361,61.8213965 52.8718262,57.5865576 52.8718262,50.9911823 C52.8718262,45.1594985 49.357712,41.6188891 43.639628,41.6188891 C40.4012522,41.6188891 37.8522221,42.4520425 33.6495368,44.8820409 L41.2970143,21 L60.3125,21 L59.554607,27.3869894 Z" id="path-1"></path>
        <filter x="-51.5%" y="-30.9%" width="202.8%" height="170.2%" filterUnits="objectBoundingBox" id="filter-2">
            <feMorphology radius="0.5" operator="dilate" in="SourceAlpha" result="shadowSpreadOuter1"></feMorphology>
            <feOffset dx="0" dy="2" in="shadowSpreadOuter1" result="shadowOffsetOuter1"></feOffset>
            <feGaussianBlur stdDeviation="5" in="shadowOffsetOuter1" result="shadowBlurOuter1"></feGaussianBlur>
            <feComposite in="shadowBlurOuter1" in2="SourceAlpha" operator="out" result="shadowBlurOuter1"></feComposite>
            <feColorMatrix values="0 0 0 0 1   0 0 0 0 1   0 0 0 0 1  0 0 0 0.9 0" type="matrix" in="shadowBlurOuter1"></feColorMatrix>
        </filter>
    </defs>
    <g id="PC_img_ranking_5" stroke="none" stroke-width="1" fill="none" fill-rule="evenodd">
        <g id="Fill-1">
            <use fill="black" fill-opacity="1" filter="url(#filter-2)" xlink:href="#path-1"></use>
            <use stroke="#FFFFFF" stroke-width="1" fill="#21ABE6" fill-rule="evenodd" xlink:href="#path-1"></use>
        </g>
    </g>
</svg>