<?xml version="1.0" encoding="UTF-8"?>
<svg width="90px" height="90px" viewBox="0 0 90 90" version="1.1" xmlns="http://www.w3.org/2000/svg" xmlns:xlink="http://www.w3.org/1999/xlink">
    <title>PC_img_ranking_10</title>
    <defs>
        <path d="M30.34375,64.7871094 L35.1679688,25.5839844 L23.640625,25.5839844 L21,30.9921875 L28.71875,30.9921875 L24.5292969,64.7871094 L30.34375,64.7871094 Z M55.1660156,65.3457031 C59.1269531,65.3457031 62.3854167,63.6614583 64.9414062,60.2929688 C66.4648438,58.2617188 67.7089844,55.5449219 68.6738281,52.1425781 C69.6386719,48.7233073 70.1210938,45.3463542 70.1210938,42.0117188 C70.1210938,36.8320312 69.0292969,32.7018229 66.8457031,29.6210938 C64.6621094,26.5403646 61.733724,25 58.0605469,25 C53.7610677,25 50.1217448,27.2259115 47.1425781,31.6777344 C44.1972656,36.1295573 42.7246094,41.6139323 42.7246094,48.1308594 C42.7246094,53.4459635 43.8333333,57.6438802 46.0507812,60.7246094 C48.2851562,63.8053385 51.3235677,65.3457031 55.1660156,65.3457031 Z M54.8867188,60.1152344 C52.8554688,60.1152344 51.2558594,59.125 50.0878906,57.1445312 C48.936849,55.1302083 48.3613281,52.3626302 48.3613281,48.8417969 C48.3613281,43.6113281 49.2923177,39.2018229 51.1542969,35.6132812 C53.0332031,32.0247396 55.3352865,30.2304688 58.0605469,30.2304688 C60.0579427,30.2304688 61.6236979,31.2545573 62.7578125,33.3027344 C63.8919271,35.3001302 64.4589844,38.110026 64.4589844,41.7324219 C64.4589844,44.2207031 64.1542969,46.7936198 63.5449219,49.4511719 C62.969401,52.0748698 62.2076823,54.1907552 61.2597656,55.7988281 C59.5501302,58.6764323 57.4257812,60.1152344 54.8867188,60.1152344 Z" id="path-1"></path>
        <filter x="-52.5%" y="-58.2%" width="204.4%" height="226.4%" filterUnits="objectBoundingBox" id="filter-2">
            <feMorphology radius="0.5" operator="dilate" in="SourceAlpha" result="shadowSpreadOuter1"></feMorphology>
            <feOffset dx="0" dy="2" in="shadowSpreadOuter1" result="shadowOffsetOuter1"></feOffset>
            <feGaussianBlur stdDeviation="8" in="shadowOffsetOuter1" result="shadowBlurOuter1"></feGaussianBlur>
            <feComposite in="shadowBlurOuter1" in2="SourceAlpha" operator="out" result="shadowBlurOuter1"></feComposite>
            <feColorMatrix values="0 0 0 0 1   0 0 0 0 1   0 0 0 0 1  0 0 0 1 0" type="matrix" in="shadowBlurOuter1" result="shadowMatrixOuter1"></feColorMatrix>
            <feMorphology radius="0.5" operator="dilate" in="SourceAlpha" result="shadowSpreadOuter2"></feMorphology>
            <feOffset dx="0" dy="2" in="shadowSpreadOuter2" result="shadowOffsetOuter2"></feOffset>
            <feGaussianBlur stdDeviation="5" in="shadowOffsetOuter2" result="shadowBlurOuter2"></feGaussianBlur>
            <feComposite in="shadowBlurOuter2" in2="SourceAlpha" operator="out" result="shadowBlurOuter2"></feComposite>
            <feColorMatrix values="0 0 0 0 1   0 0 0 0 1   0 0 0 0 1  0 0 0 1 0" type="matrix" in="shadowBlurOuter2" result="shadowMatrixOuter2"></feColorMatrix>
            <feMerge>
                <feMergeNode in="shadowMatrixOuter1"></feMergeNode>
                <feMergeNode in="shadowMatrixOuter2"></feMergeNode>
            </feMerge>
        </filter>
    </defs>
    <g id="PC_img_ranking_10" stroke="none" stroke-width="1" fill="none" fill-rule="evenodd">
        <g id="10" fill-rule="nonzero">
            <use fill="black" fill-opacity="1" filter="url(#filter-2)" xlink:href="#path-1"></use>
            <use stroke="#FFFFFF" stroke-width="1" fill="#21ABE6" xlink:href="#path-1"></use>
        </g>
    </g>
</svg>